<svg xmlns="http://www.w3.org/2000/svg" width="1024" height="1024" viewBox="-51.5 -51.5 1127.0 1127.0">
  <g fill="none" stroke="black" stroke-width="45" stroke-linecap="round" stroke-linejoin="round">
    <path d="M 633.05,327.02 C 652.54,319.4 674.23,314.22 703.57,311.7 C 736.52,311.58 765.88,314.2 795.2,319.76 C 817.22,326.98 839.13,337.33 857.88,349.64 C 872.16,362.13 887.87,380.2 899.53,398.65 C 909.47,420.69 916.14,442.82 918.91,461.21 L 920.32,488.22" data-line="nan"  stroke-width="45.0"/>
    <path d="M 710.58,488.18 C 704.21,469.76 693.52,447.78 681.6,429.4 C 669.34,414.72 654.6,400.45 636.13,386.24 C 614.19,372.51 592.11,361.8 570.19,354.16 C 544.51,347.53 515.24,341.92 489.64,338.93 C 451.35,338.35 428.65,339.33 395.71,343.36 C 366.09,349.57 344.58,356.01 322.62,364.41 C 304.59,373.22 286.48,384.4 268.12,398.56 C 253.55,412.15 240.86,426.88 230.79,441.49 C 222.46,456.14 215.14,472.83 209.12,492.4 C 204.35,514.13 201.66,535.95 199.79,576.27 Q 199.56,598.07 200.62,618.44" data-line="nan"  stroke-width="45.0"/>
    <path d="M 512.0,845.98 C 513.59,861.42 518.77,875.67 527.18,887.97 C 537.66,897.44 550.54,904.42 563.28,908.0 Q 571.77,908.85 602.8,909.2" data-line="nan"  stroke-width="45.0"/>
    <path d="M 200.62,618.44 L 448.0,620.8" data-line="2.0"  stroke-width="45.0"/>
    <path d="M 655.7682198440119,70.6772895090543 A 109.73566602207472,109.73566602207472 0 1,1 658.7193497480451,247.5322772211503" data-line="6.0"  stroke-width="45.0"/>
    <path d="M 1.18,551.17 L 3.0,449.09" data-line="7.0"  stroke-width="45.0"/>
    <path d="M 1.18,551.17 L 131.76,552.15" data-line="8.0"  stroke-width="45.0"/>
    <path d="M 259.9790459048952,250.0752616863681 A 109.87906463073828,109.87906463073828 0 1,1 261.84850726875686,67.4937269608344" data-line="12.0"  stroke-width="45.0"/>
    <circle cx="460.562143317393" cy="145.954262984045" r="146.3332569437602" data-line="13.0"  stroke-width="45.0"/>
    <path d="M 563.9,249.66 L 568.22,245.46" data-line="14.0"  stroke-width="45.0"/>
    <path d="M 720.78,908.94 L 957.99,908.92" data-line="16.0"  stroke-width="45.0"/>
    <path d="M 720.78,908.94 L 603.9,1024.0" data-line="17.0"  stroke-width="45.0"/>
    <path d="M 603.9,1024.0 L 602.8,909.2" data-line="18.0"  stroke-width="45.0"/>
    <path d="M 2.8107821824131634,449.0552893125716 A 164.8851300043961,164.8851300043961 0 0,1 102.67752511398703,326.14843563165516" data-line="19.0"  stroke-width="45.0"/>
    <path d="M 102.67,326.13 C 165.42621677721735,304.09144220394234 229.59549772058247,304.42011139581524 287.04,326.1" data-line="20.0"  stroke-width="45.0"/>
    <path d="M 957.9818262650635,909.0950947337549 A 63.64093440848486,63.64093440848486 0 0,0 1022.5030603659504,829.3578811843394" data-line="21.0"  stroke-width="45.0"/>
    <path d="M 1023.98,828.97 L 1023.99,619.86" data-line="22.0"  stroke-width="45.0"/>
    <path d="M 1024.144037610461,619.86823588899 A 64.76620379756825,64.76620379756825 0 0,0 943.41951768189,553.664528773166" data-line="23.0"  stroke-width="45.0"/>
    <path d="M 943.05,552.22 L 576.17,552.24" data-line="24.0"  stroke-width="45.0"/>
    <path d="M 576.1697304902707,552.2610702203922 A 63.48884410194498,63.48884410194498 0 0,0 512.3858567729494,623.8304550837856" data-line="25.0"  stroke-width="45.0"/>
    <path d="M 512.0,623.88 L 512.0,845.98" data-line="26.0"  stroke-width="45.0"/>
  </g>
</svg>