<svg xmlns="http://www.w3.org/2000/svg" width="1024" height="1024" viewBox="-51.5 -51.5 1127.0 1127.0">
  <g fill="none" stroke="black" stroke-width="45" stroke-linecap="round" stroke-linejoin="round">
    <path d="M 490.273,993.857 C 381.026,854.776 342.57,802.706 311.59,758.992 C 282.688,716.335 258.475,678.612 236.23,641.623 C 217.748,608.681 202.305,578.588 188.014,547.711 C 175.3,516.492 165.498,488.164 158.396,463.429 Q 152.444,436.427 148.05,407.531" data-line="nan"  stroke-width="45.0"/>
    <path d="M 148.05,407.531 C 146.091,384.607 145.611,364.584 146.788,340.792 C 149.177,319.218 153.251,295.646 157.949,275.695 C 164.623,253.21 172.305,232.174 180.866,212.569 C 190.459,193.754 201.656,174.837 214.522,155.936 C 229.249,137.008 244.092,120.17 258.28,105.799 C 274.783,90.843 292.609,76.525 310.388,63.848 C 327.407,53.237 346.87,42.625 366.996,33.206 C 387.531,25.028 410.823,17.493 429.535,12.71 C 452.115,8.397 473.836,5.683 496.77,4.248 C 516.784,4.055 540.6,5.179 562.241,7.461 C 586.167,11.465 606.064,16.126 628.647,22.899 C 645.015,28.957 664.551,37.428 685.506,48.085 C 705.356,59.759 723.501,71.987 740.31,84.74 C 757.753,99.624 774.404,115.56 787.588,129.654 C 802.678,147.861 814.461,163.985 826.364,182.458 C 837.352,202.157 846.576,221.38 855.101,242.303 C 861.538,261.315 867.939,284.542 872.227,304.439 C 875.658,325.604 877.583,344.586 878.419,366.173 C 876.517,404.452 873.604,426.192 869.958,445.425 C 864.753,466.711 857.371,491.638 841.158,535.02 L 818.477,583.581" data-line="nan"  stroke-width="45.0"/>
    <path d="M 818.477,583.581 C 802.234,614.225 785.671,643.256 731.723,728.885 C 667.818,820.342 631.616,869.072 592.116,920.086" data-line="nan"  stroke-width="45.0"/>
    <path d="M 490.273,993.857 L 510.937,1020.0" data-line="1.0"  stroke-width="45.0"/>
    <circle cx="511.7079367140679" cy="377.88179277282126" r="167.81392788376957" data-line="3.0"  stroke-width="45.0"/>
    <path d="M 592.116,920.086 L 510.937,1020.0" data-line="5.0"  stroke-width="45.0"/>
  </g>
</svg>