<svg xmlns="http://www.w3.org/2000/svg" width="1024" height="1024" viewBox="-51.5 -51.5 1127.0 1127.0">
  <g fill="none" stroke="black" stroke-width="45" stroke-linecap="round" stroke-linejoin="round">
    <path d="M 413.651,1008.706 C 375.707,998.306 337.613,983.812 300.056,965.296 C 261.949,942.647 229.906,919.028 202.893,895.534 C 178.549,870.138 164.553,853.427 152.436,837.453 C 141.088,820.972 127.595,799.078 107.937,761.705 C 94.577,729.072 82.928,691.057 75.83,658.979 C 69.843,615.895 68.109,572.871 70.997,529.832 C 77.022,491.94 86.61,454.203 100.04,416.366 C 117.368,378.872 129.404,357.23 139.407,341.092 C 162.122,309.314 175.744,292.767 190.839,276.154 C 217.868,250.408 234.273,236.485 250.294,224.185 C 282.826,202.739 315.088,185.12 352.453,168.775 C 390.575,155.933 428.273,146.66 471.411,139.85 L 513.679,136.448" data-line="nan"  stroke-width="45.0"/>
    <path d="M 783.2359228243665,228.27815313982882 A 444.82189494460766,444.82189494460766 0 0,0 513.6800413950236,137.60570244013616" data-line="0.0"  stroke-width="45.0"/>
    <path d="M 782.7531823704608,228.9090701135588 A 440.5979031850141,440.5979031850141 0 0,1 521.7519877366213,1019.5168317510731" data-line="1.0"  stroke-width="45.0"/>
    <path d="M 395.189,4.0 L 633.89,4.252" data-line="2.0"  stroke-width="45.0"/>
    <path d="M 513.679,136.448 L 513.356,4.123" data-line="3.0"  stroke-width="45.0"/>
    <path d="M 865.646,139.062 L 783.328,228.157" data-line="4.0"  stroke-width="45.0"/>
    <path d="M 514.287,270.57 L 514.287,560.982" data-line="9.0"  stroke-width="45.0"/>
    <path d="M 521.758,1019.921 L 413.651,1008.706" data-line="10.0"  stroke-width="45.0"/>
  </g>
</svg>